# xmcd CD database file
#
# Track frame offsets:
#	150
#	17490
#	34612
#	52122
#	68830
#	84272
#	96260
#	111497
#	129227
#	144282
#	164637
#	184232
#	197942
#	211437
#	222910
#	251602
#
# Disc length: 3665 seconds
#
# Revision: 0
# Processed by: cddbd v1.4PL0 Copyright (c) Steve Scherf et al.
# Submitted via: CDex 1.50Beta7
#
DISCID=ea0e4f10
DTITLE=Various Artist - Heart Burn
DYEAR=1900
DGENRE=Jazz
TTITLE0=Anita O'Day/Fly Me To The Moon
TTITLE1=Ella Fitzgerald/Cheek To Cheek
TTITLE2=Ella Fitzgerald/The Man I Love
TTITLE3=Ella Fitzgerald/Have You Met Miss Jones
TTITLE4=The Oscar Peterson Trio/All Of Me
TTITLE5=Anita O'Day/Beautiful Love
TTITLE6=Anita O'Day/Tenderly
TTITLE7=Anita O'Day/I Can't Get Started
TTITLE8=Brossom Dearie/Tea For Two
TTITLE9=Brossom Dearie/Like Someone In Love
TTITLE10=Tony Harper/Bewitched -Bothered And Bewildered-
TTITLE11=Benny Carter and His Strings/Cocktails For Two
TTITLE12=Billie Holiday/How Deep Is The Ocean
TTITLE13=Billie Holiday/All Of You
TTITLE14=Billie Holiday/Body And Soul
TTITLE15=The Oscar Peterson Trio/My One And Only One
EXTD=
EXTT0=
EXTT1=
EXTT2=
EXTT3=
EXTT4=
EXTT5=
EXTT6=
EXTT7=
EXTT8=
EXTT9=
EXTT10=
EXTT11=
EXTT12=
EXTT13=
EXTT14=
EXTT15=
PLAYORDER=
